<!-- <svg width="13" height="10" viewBox="0 0 13 10" fill="none" xmlns="http://www.w3.org/2000/svg">
<path d="M1.95703 4.75166L1.88825 4.68604L1.81923 4.75141L0.93123 5.59258L0.854858 5.66492L0.930974 5.73753L4.42671 9.07236L4.49574 9.1382L4.56476 9.07236L12.069 1.91352L12.1449 1.84116L12.069 1.76881L11.1873 0.927644L11.1183 0.861826L11.0493 0.927611L4.49577 7.17353L1.95703 4.75166Z" fill="white" stroke="white" stroke-width="0.2"/>
</svg> -->


<svg xmlns="http://www.w3.org/2000/svg" width="16" height="16" viewBox="0 0 16 16" fill="none">
<rect x="0.5" y="0.5" width="15" height="15" rx="1.5" />
<path d="M11.4456 4.25506C11.6184 4.08965 11.8483 3.99821 12.0869 4.00003C12.3255 4.00184 12.5541 4.09677 12.7244 4.26478C12.8947 4.4328 12.9934 4.66075 12.9997 4.90055C13.006 5.14034 12.9194 5.37323 12.7582 5.55005L7.86357 11.7044C7.7794 11.7955 7.67782 11.8686 7.5649 11.9194C7.45198 11.9702 7.33003 11.9975 7.20636 11.9998C7.08268 12.0021 6.95981 11.9793 6.8451 11.9328C6.73038 11.8863 6.62618 11.817 6.53872 11.729L3.29283 8.46564C3.20243 8.38096 3.12993 8.27884 3.07965 8.16537C3.02936 8.05191 3.00232 7.92942 3.00014 7.80522C2.99796 7.68102 3.02069 7.55765 3.06696 7.44248C3.11323 7.3273 3.18211 7.22267 3.26947 7.13483C3.35684 7.047 3.4609 6.97775 3.57547 6.93123C3.69003 6.88471 3.81273 6.86186 3.93627 6.86405C4.0598 6.86624 4.18163 6.89343 4.29449 6.94398C4.40734 6.99454 4.50892 7.06743 4.59315 7.15831L7.16189 9.73967L11.4223 4.28219C11.4299 4.27269 11.4381 4.26364 11.4468 4.25506H11.4456Z" fill="#F4F4FD"/>
<rect x="0.5" y="0.5" width="15" height="15" rx="1.5" />
</svg>
